<svg width="20" height="20" viewBox="0 0 20 20" fill="none" xmlns="http://www.w3.org/2000/svg">
<path d="M9.99987 6.58551C8.27955 6.58551 6.87565 7.98942 6.87565 9.70973C6.87565 11.43 8.27955 12.8339 9.99987 12.8339C11.7202 12.8339 13.1241 11.43 13.1241 9.70973C13.1241 7.98942 11.7202 6.58551 9.99987 6.58551ZM19.3702 9.70973C19.3702 8.41598 19.3819 7.13395 19.3092 5.84254C19.2366 4.34254 18.8944 3.01129 17.7975 1.91442C16.6983 0.815199 15.3694 0.475355 13.8694 0.402699C12.5756 0.330043 11.2936 0.341762 10.0022 0.341762C8.70846 0.341762 7.42643 0.330043 6.13502 0.402699C4.63502 0.475355 3.30377 0.817543 2.2069 1.91442C1.10768 3.01364 0.767836 4.34254 0.69518 5.84254C0.622523 7.13629 0.634242 8.41832 0.634242 9.70973C0.634242 11.0011 0.622523 12.2855 0.69518 13.5769C0.767836 15.0769 1.11002 16.4082 2.2069 17.505C3.30612 18.6043 4.63502 18.9441 6.13502 19.0168C7.42877 19.0894 8.7108 19.0777 10.0022 19.0777C11.296 19.0777 12.578 19.0894 13.8694 19.0168C15.3694 18.9441 16.7006 18.6019 17.7975 17.505C18.8967 16.4058 19.2366 15.0769 19.3092 13.5769C19.3842 12.2855 19.3702 11.0035 19.3702 9.70973ZM9.99987 14.5168C7.33971 14.5168 5.19284 12.3699 5.19284 9.70973C5.19284 7.04957 7.33971 4.9027 9.99987 4.9027C12.66 4.9027 14.8069 7.04957 14.8069 9.70973C14.8069 12.3699 12.66 14.5168 9.99987 14.5168ZM15.0038 5.82848C14.3827 5.82848 13.8811 5.32692 13.8811 4.70582C13.8811 4.08473 14.3827 3.58317 15.0038 3.58317C15.6249 3.58317 16.1264 4.08473 16.1264 4.70582C16.1266 4.85331 16.0977 4.99937 16.0413 5.13566C15.985 5.27196 15.9023 5.39579 15.798 5.50007C15.6937 5.60436 15.5699 5.68705 15.4336 5.7434C15.2973 5.79975 15.1513 5.82867 15.0038 5.82848Z" fill="#1D1F2F"/>
</svg>
