<svg width="22" height="21" viewBox="0 0 22 21" fill="none" xmlns="http://www.w3.org/2000/svg">
<path d="M10.9906 0.498048C5.19453 0.495704 0.5 5.18789 0.5 10.9793C0.5 15.559 3.43672 19.452 7.52656 20.8816C8.07734 21.0199 7.99297 20.6285 7.99297 20.3613V18.5449C4.8125 18.9176 4.68359 16.8129 4.47031 16.4613C4.03906 15.7254 3.01953 15.5379 3.32422 15.1863C4.04844 14.8137 4.78672 15.2801 5.64219 16.5434C6.26094 17.4598 7.46797 17.3051 8.07969 17.1527C8.21328 16.602 8.49922 16.1098 8.89297 15.7277C5.59766 15.1371 4.22422 13.1262 4.22422 10.7355C4.22422 9.57539 4.60625 8.50899 5.35625 7.64883C4.87812 6.23086 5.40078 5.0168 5.47109 4.83633C6.83281 4.71445 8.24844 5.81133 8.35859 5.89805C9.13203 5.68945 10.0156 5.5793 11.0047 5.5793C11.9984 5.5793 12.8844 5.69414 13.6648 5.90508C13.9297 5.70352 15.2422 4.76133 16.5078 4.87617C16.5758 5.05664 17.0867 6.24258 16.6367 7.6418C17.3961 8.5043 17.7828 9.58008 17.7828 10.7426C17.7828 13.1379 16.4 15.1512 13.0953 15.7324C13.3784 16.0108 13.6031 16.3428 13.7564 16.709C13.9098 17.0752 13.9886 17.4682 13.9883 17.8652V20.502C14.007 20.7129 13.9883 20.9215 14.3398 20.9215C18.4906 19.5223 21.4789 15.6012 21.4789 10.9816C21.4789 5.18789 16.782 0.498048 10.9906 0.498048Z" fill="#1D1F2F"/>
</svg>
