<svg width="22" height="17" viewBox="0 0 22 17" fill="none" xmlns="http://www.w3.org/2000/svg">
<path d="M20.75 0.459717H1.25C0.835156 0.459717 0.5 0.794873 0.5 1.20972V16.2097C0.5 16.6246 0.835156 16.9597 1.25 16.9597H20.75C21.1648 16.9597 21.5 16.6246 21.5 16.2097V1.20972C21.5 0.794873 21.1648 0.459717 20.75 0.459717ZM18.8563 3.01206L11.4617 8.76597C11.2789 8.90894 11.0234 8.90894 10.8406 8.76597L3.44375 3.01206C3.41587 2.99054 3.39541 2.96084 3.38526 2.92711C3.37511 2.89338 3.37576 2.85733 3.38713 2.82399C3.3985 2.79065 3.42002 2.76171 3.44867 2.74122C3.47731 2.72073 3.51165 2.70971 3.54688 2.70972H18.7531C18.7883 2.70971 18.8227 2.72073 18.8513 2.74122C18.88 2.76171 18.9015 2.79065 18.9129 2.82399C18.9242 2.85733 18.9249 2.89338 18.9147 2.92711C18.9046 2.96084 18.8841 2.99054 18.8563 3.01206Z" fill="#1D1F2F"/>
</svg>
